<?xml version="1.0" encoding="UTF-8"?><svg id="a" xmlns="http://www.w3.org/2000/svg" viewBox="0 0 320 140"><defs><style>.c{fill:#007b97;}.d{fill:#0069ad;}.e,.f{fill:#fff;}.g{fill:#df1612;}.h{letter-spacing:-.03em;}.i{letter-spacing:0em;}.j{fill:#f59e00;}.k{letter-spacing:-.01em;}.l{letter-spacing:0em;}.m{letter-spacing:0em;}.n{fill:#ec0000;}.o{letter-spacing:0em;}.p{letter-spacing:0em;}.q{fill:#ea5b0c;}.r{letter-spacing:0em;}.s{fill:#e92628;}.t{letter-spacing:0em;}.u{fill:#101820;}.f{font-family:SantanderText-Bold, Santander Text;font-size:13.37px;}.v{fill:#83317c;}</style></defs><path class="n" d="M167.52,20.5c-4.66,0-11.44,.97-17.6,2.46v44.01h9.68V29.48c2.64-.44,5.37-.7,7.66-.7,9.68,0,11.97,3.34,11.97,10.3v27.9h9.68v-29.58c0-10.65-5.19-16.9-21.39-16.9ZM50,58.71c-2.64,.53-5.55,.88-8.1,.88-13.38,0-21.83-7.75-21.83-23.5,0-14.44,7.83-22.62,22.27-22.62,6.16,0,11,1.06,15.32,2.47,.88-2.73,1.58-5.99,1.76-8.89-4.58-1.58-10.3-2.38-17.08-2.38-20.6,0-32.48,11.44-32.48,31.78,0,18.66,10.83,31.95,31.34,31.95,6.6,0,13.64-1.23,18.66-3.26v-31.34h-9.86v24.91ZM217.87,20.5c-15.4,0-21.48,10.39-21.48,23.5,0,15.05,7.83,24.03,24.03,24.03,5.19,0,9.86-.79,14.26-2.82,.62-2.91,1.14-6.25,1.5-8.8-4.84,2.2-10.21,3.34-15.49,3.34-8.63,0-13.2-3.79-14.44-11.62h30.9c.35-2.55,.53-4.75,.53-7.48,0-11.09-5.99-20.16-19.81-20.16Zm-11.8,19.54c.79-7.48,4.4-11.44,11.27-11.44s10.56,4.23,10.56,11.44h-21.83Zm63.64-9.77c.44-2.55,.7-5.28,.88-8.27h-15.32V5.36c-2.99,0-6.69,.44-9.68,1.41V52.98c0,10.74,5.99,15.05,15.4,15.05,2.73,0,5.55-.35,8.19-1.41,.53-2.55,.88-5.55,1.14-8.19-2.11,.79-4.75,1.32-7.57,1.32-4.66,0-7.48-2.2-7.48-7.92V30.27h14.44Zm-127.73,0c.44-2.55,.7-5.28,.88-8.27h-15.32V5.36c-2.99,0-6.69,.44-9.68,1.41V52.98c0,10.74,5.99,15.05,15.4,15.05,2.73,0,5.55-.35,8.19-1.41,.53-2.55,.88-5.55,1.14-8.19-2.11,.79-4.75,1.32-7.57,1.32-4.66,0-7.48-2.2-7.48-7.92V30.27h14.44Zm-51.85-9.77c-15.4,0-21.48,10.39-21.48,23.5,0,15.05,7.83,24.03,24.03,24.03,5.19,0,9.86-.79,14.26-2.82,.62-2.91,1.14-6.25,1.5-8.8-4.84,2.2-10.21,3.34-15.49,3.34-8.63,0-13.2-3.79-14.44-11.62h30.9c.35-2.55,.53-4.75,.53-7.48,0-11.09-5.99-20.16-19.81-20.16Zm-11.8,19.54c.79-7.48,4.4-11.44,11.27-11.44s10.56,4.23,10.56,11.44h-21.83Zm226.85-9.77h4.94v-4.94h-4.94v4.94Zm0-9.88h4.94v-4.94h-4.94v4.94Zm-9.88-9.88h4.94V5.57h-4.94v4.94Zm-9.88,19.77h4.94v-4.94h-4.94v4.94Zm9.88-9.88h4.94v-4.94h-4.94v4.94Zm9.88-14.82v4.94h4.94V5.57h-4.94Zm-19.77,14.82h4.94v-4.94h-4.94v4.94Zm0-9.88h4.94V5.57h-4.94v4.94Zm9.88,19.77h4.94v-4.94h-4.94v4.94Z"/><g><path class="n" d="M228.74,85.65c-.03-.59-.19-1.18-.5-1.71l-2.7-4.68c-.21-.36-.35-.74-.43-1.13l-.11,.2c-.67,1.16-.67,2.59,0,3.75l2.16,3.75c.67,1.16,.67,2.59,0,3.75l-.11,.2c-.08-.39-.22-.77-.43-1.13l-1.98-3.43-1.26-2.19c-.21-.36-.35-.74-.43-1.13l-.11,.2c-.67,1.15-.67,2.58,0,3.73h0l2.17,3.76c.67,1.16,.67,2.59,0,3.75l-.11,.2c-.08-.39-.22-.78-.43-1.13l-2.7-4.68c-.36-.63-.53-1.34-.5-2.04-2.89,.76-4.89,2.36-4.89,4.22,0,2.59,3.87,4.68,8.63,4.68s8.63-2.1,8.63-4.68c0-1.86-2-3.46-4.89-4.22m8.15,8c.03-.67,.13-1.12,.31-1.64,.91,.42,2.07,.63,2.97,.63,1.51,0,2.35-.49,2.35-1.44s-.61-1.38-2.14-2.04l-.83-.36c-1.52-.67-2.56-1.52-2.56-3.24,0-1.85,1.28-3.03,3.91-3.03,1.05,0,2.04,.15,2.97,.47-.05,.65-.16,1.15-.32,1.62-.88-.32-1.91-.47-2.66-.47-1.41,0-2.06,.55-2.06,1.41s.63,1.33,1.77,1.82l.88,.37c2.06,.88,2.92,1.8,2.92,3.37,0,1.86-1.41,3.15-4.17,3.15-1.33,0-2.42-.19-3.32-.62m16.2-7.75v8.11h-1.64l-.1-.97c-.45,.71-1.15,1.17-2.29,1.17-2.14,0-3.57-1.56-3.57-4.28s1.53-4.48,4.53-4.48c1.17,0,2.12,.13,3.06,.45m-1.78,6.26v-5.09c-.37-.06-.78-.1-1.28-.1-1.85,0-2.71,1.13-2.71,2.95,0,1.65,.66,2.82,2.25,2.82,.7,0,1.26-.23,1.73-.58m10.91-3.6v5.45h-1.78v-5.14c0-1.28-.42-1.9-2.21-1.9-.42,0-.92,.05-1.41,.13v6.91h-1.78v-8.11c1.14-.28,2.38-.45,3.24-.45,2.98,0,3.94,1.15,3.94,3.11m4.95,4.12c.52,0,1.01-.1,1.4-.24-.05,.49-.11,1.04-.21,1.51-.49,.2-1,.26-1.51,.26-1.73,0-2.84-.79-2.84-2.77v-8.51c.55-.18,1.23-.26,1.78-.26v3.06h2.82c-.03,.55-.08,1.05-.16,1.52h-2.66v3.97c0,1.05,.52,1.46,1.38,1.46m9.57-6.78v8.11h-1.64l-.1-.97c-.46,.71-1.15,1.17-2.29,1.17-2.14,0-3.57-1.56-3.57-4.28s1.52-4.48,4.52-4.48c1.17,0,2.12,.13,3.07,.45m-1.78,6.26v-5.09c-.37-.06-.78-.1-1.28-.1-1.85,0-2.71,1.13-2.71,2.95,0,1.65,.67,2.82,2.25,2.82,.7,0,1.26-.23,1.74-.58m10.91-3.6v5.45h-1.78v-5.14c0-1.28-.42-1.9-2.2-1.9-.42,0-.93,.05-1.41,.13v6.91h-1.78v-8.11c1.14-.28,2.38-.45,3.24-.45,2.98,0,3.94,1.15,3.94,3.11m9.05-5.9v11.35h-1.64l-.1-1.04c-.45,.76-1.15,1.23-2.32,1.23-2.14,0-3.57-1.56-3.57-4.28s1.52-4.48,4.53-4.48c.47,0,.91,.05,1.33,.13v-2.68c.55-.19,1.18-.24,1.77-.24m-1.77,9.47v-4.99c-.47-.1-.96-.16-1.43-.16-1.77,0-2.61,1.1-2.61,2.95,0,1.65,.67,2.82,2.26,2.82,.71,0,1.3-.24,1.78-.62m10.74-1.59h-5.69c.23,1.44,1.07,2.14,2.66,2.14,.97,0,1.96-.21,2.85-.62-.07,.47-.16,1.09-.28,1.62-.81,.37-1.67,.52-2.63,.52-2.98,0-4.43-1.65-4.43-4.43,0-2.42,1.12-4.33,3.96-4.33,2.55,0,3.65,1.67,3.65,3.71,0,.5-.03,.91-.1,1.38m-5.72-1.49h4.02c0-1.33-.71-2.11-1.95-2.11s-1.93,.73-2.08,2.11m11.97-3.54c0,.54-.07,1.18-.16,1.52-.42-.05-.84-.06-1.35-.06-.44,0-.88,.03-1.31,.1v6.94h-1.78v-8.11c.76-.26,2.04-.45,3.05-.45,.55,0,1.17,.02,1.56,.06"/><g><path class="n" d="M203.46,90.82c0,1.95-1.3,3.18-3.81,3.18h-3.25v-11.42c.78-.13,1.73-.23,2.57-.23,2.81,0,3.99,1.07,3.99,2.94,0,1.34-.78,2.26-1.93,2.67,1.57,.36,2.43,1.5,2.43,2.85Zm-4.52-7.74c-.58,0-1.17,.05-1.73,.12v4.47h2.31c1.57,0,2.64-.84,2.64-2.29s-.92-2.29-3.22-2.29Zm3.7,7.72c0-1.45-1.06-2.41-3.05-2.41h-2.38v4.9h2.38c1.98,0,3.05-.92,3.05-2.49Z"/><path class="n" d="M211.62,85.85l-3.28,9.21c-.68,1.86-1.39,2.64-2.67,2.64-.2,0-.4-.02-.56-.07,0-.25,.02-.48,.05-.68,.13,.02,.3,.03,.45,.03,.94,0,1.53-.49,2.16-2.36l-3.35-8.78h.86l2.87,7.8,2.67-7.8h.81Z"/></g></g><g><g><path class="d" d="M309.98,107.45h-26.49v26.58h26.49v-8.77c.1-.15,.16-.35,.16-.58,0-.27-.05-.44-.16-.58v-16.64Z"/><path class="e" d="M285.88,118.95l-.51-1.24-.51,1.24h1.02Zm11.22-.49c-.1,.06-.22,.06-.37,.06h-.91v-.69h.92c.13,0,.26,0,.35,.05,.1,.05,.16,.14,.16,.27s-.06,.25-.15,.3m6.45,.49l-.52-1.24-.51,1.24h1.03Zm-12.02,1.34h-.76v-2.44l-1.08,2.44h-.65l-1.08-2.44v2.44h-1.51l-.28-.69h-1.55l-.29,.69h-.81l1.33-3.11h1.11l1.27,2.95v-2.95h1.22l.97,2.11,.9-2.11h1.24v3.11Zm3.04,0h-2.49v-3.11h2.49v.65h-1.74v.56h1.7v.64h-1.7v.62h1.74v.64Zm3.51-2.27c0,.5-.33,.75-.52,.83,.16,.06,.3,.17,.37,.26,.11,.15,.13,.29,.13,.57v.61h-.75v-.39c0-.19,.02-.46-.12-.6-.11-.11-.27-.13-.54-.13h-.8v1.13h-.74v-3.11h1.71c.38,0,.66,.01,.9,.15,.24,.14,.38,.34,.38,.69m1.19,2.27h-.76v-3.11h.76v3.11Zm8.81,0h-1.06l-1.41-2.34v2.34h-1.52l-.29-.69h-1.55l-.28,.69h-.87c-.37,0-.82-.08-1.08-.34-.26-.27-.4-.62-.4-1.19,0-.46,.08-.88,.4-1.22,.24-.25,.62-.36,1.13-.36h.72v.67h-.7c-.27,0-.43,.04-.58,.19-.13,.13-.21,.38-.21,.71s.07,.57,.21,.73c.11,.12,.32,.16,.52,.16h.34l1.05-2.45h1.12l1.26,2.95v-2.95h1.14l1.31,2.17v-2.17h.76v3.11Zm-24.59,.61h1.27l.29-.69h.64l.29,.69h2.5v-.53l.22,.53h1.3l.22-.54v.53h6.22v-1.13h.12c.09,0,.11,.01,.11,.15v.98h3.21v-.26c.26,.14,.66,.26,1.19,.26h1.35l.29-.69h.64l.28,.69h2.61v-.66l.39,.66h2.09v-4.34h-2.07v.51l-.29-.51h-2.12v.51l-.27-.51h-2.87c-.48,0-.9,.07-1.24,.25v-.25h-1.98v.25c-.22-.19-.51-.25-.84-.25h-7.23l-.49,1.12-.49-1.12h-2.28v.51l-.25-.51h-1.94l-.9,2.06v2.28Z"/><path class="e" d="M309.98,123.2h-1.36c-.14,0-.23,0-.3,.06-.08,.05-.11,.13-.11,.22,0,.12,.07,.2,.16,.23,.08,.03,.16,.03,.29,.04h.4c.41,.02,.68,.09,.84,.26,.03,.02,.05,.05,.07,.08v-.89Zm0,2.05c-.18,.27-.53,.4-1.01,.4h-1.44v-.67h1.43c.14,0,.24-.02,.3-.08,.05-.05,.09-.12,.09-.2s-.04-.16-.09-.21c-.05-.05-.13-.07-.26-.07-.7-.02-1.57,.02-1.57-.96,0-.45,.29-.93,1.07-.93h1.48v-.62h-1.38c-.41,0-.72,.1-.93,.26v-.26h-2.03c-.33,0-.71,.08-.89,.26v-.26h-3.64v.26c-.29-.21-.78-.26-1.01-.26h-2.4v.26c-.23-.22-.74-.26-1.05-.26h-2.69l-.61,.67-.57-.67h-4.01v4.35h3.94l.63-.67,.6,.67h2.43v-1.02h.24c.32,0,.7,0,1.04-.15v1.17h2v-1.13h.1c.12,0,.14,0,.14,.13v1h6.08c.39,0,.79-.1,1.01-.28v.28h1.93c.41,0,.79-.06,1.09-.2v-.81Zm-2.97-1.24c.15,.15,.22,.34,.22,.66,0,.67-.42,.98-1.17,.98h-1.45v-.67h1.44c.14,0,.24-.02,.31-.08,.05-.05,.09-.12,.09-.2s-.04-.16-.09-.21c-.06-.05-.13-.07-.26-.07-.69-.02-1.57,.02-1.57-.96,0-.45,.28-.93,1.06-.93h1.49v.67h-1.37c-.14,0-.23,0-.3,.06-.08,.05-.11,.13-.11,.22,0,.12,.07,.2,.16,.23,.08,.03,.16,.03,.29,.04h.4c.41,.02,.68,.09,.85,.26m-6.72-.19c-.1,.06-.22,.06-.37,.06h-.9v-.7h.92c.13,0,.27,0,.35,.05,.1,.05,.16,.15,.16,.28s-.06,.24-.16,.3m.45,.39c.16,.06,.3,.17,.36,.26,.11,.15,.12,.29,.13,.57v.62h-.75v-.39c0-.19,.02-.46-.12-.61-.11-.11-.28-.14-.54-.14h-.8v1.14h-.75v-3.12h1.72c.38,0,.65,.02,.9,.15,.23,.14,.38,.34,.38,.69,0,.5-.33,.75-.53,.83m.94-1.67h2.48v.65h-1.74v.57h1.7v.64h-1.7v.62h1.74v.65h-2.48v-3.12Zm-5.02,1.44h-.96v-.79h.97c.27,0,.46,.11,.46,.38s-.18,.41-.46,.41m-1.71,1.4l-1.14-1.27,1.14-1.23v2.5Zm-2.95-.37h-1.83v-.62h1.64v-.64h-1.64v-.57h1.87l.82,.91-.85,.91Zm5.92-1.44c0,.86-.64,1.04-1.29,1.04h-.93v1.05h-1.44l-.92-1.03-.95,1.03h-2.95v-3.12h2.99l.92,1.02,.95-1.02h2.38c.59,0,1.25,.17,1.25,1.03"/><path class="c" d="M282.37,132.7c0,.59-.45,1.07-1.07,1.07s-1.07-.48-1.07-1.07,.45-1.07,1.07-1.07,1.07,.48,1.07,1.07m.19,0c0-.7-.56-1.25-1.26-1.25s-1.26,.56-1.26,1.25,.56,1.26,1.26,1.26,1.26-.56,1.26-1.26m-.97-.26c0-.15-.1-.16-.18-.16h-.35v.33h.33c.11,0,.2-.03,.2-.17m.25,.83h-.23c-.03-.09-.03-.27-.03-.31,0-.09-.01-.17-.17-.17h-.34v.48h-.21v-1.18h.55c.19,0,.39,.07,.39,.33,0,.15-.06,.22-.13,.26,.05,.03,.1,.08,.1,.21v.2c.01,.06,.02,.07,.07,.1v.07Z"/></g><g><rect class="s" x="117.12" y="107.43" width="44.44" height="26.67" rx="1.97" ry="1.97"/><path class="v" d="M143.8,122.19c-.03-.05-.06-.11-.08-.17,.03,.06,.05,.11,.08,.17"/><path class="e" d="M127,125.85h-1.45c-.18,0-.35,.11-.43,.27l-1.66,3.53h0l-1.69-3.53c-.08-.16-.25-.27-.43-.27h-1.4c-.26,0-.48,.21-.48,.47v4.94c0,.26,.21,.47,.48,.47h.72c.26,0,.48-.21,.48-.47v-2.85h0l1.49,3.05c.08,.16,.25,.27,.43,.27h.78c.18,0,.35-.11,.43-.27l1.5-3.14h0v2.94c0,.26,.21,.47,.48,.47h.75c.26,0,.48-.21,.48-.47v-4.94c0-.26-.21-.47-.48-.47"/><path class="e" d="M132.84,126.08c-.08-.14-.24-.23-.41-.23h-1.02c-.17,0-.33,.09-.41,.23l-2.94,4.93c-.04,.06-.06,.13-.07,.21-.02,.3,.21,.51,.48,.51h.79c.17,0,.33-.09,.41-.24l.51-.88h0c.08,.15,.23,.24,.4,.24h3.12l.37,.64c.08,.14,.24,.24,.41,.24h.84c.17,0,.33-.09,.41-.24,.08-.14,.08-.32,0-.47l-2.9-4.94Zm-2,3.41l1.04-1.79h0l1.04,1.78h-2.08"/><path class="e" d="M143.2,128.11h-3.14c-.26,0-.48,.21-.48,.47v.5c0,.26,.21,.47,.48,.47h1.95v.3h0c-.5,.33-1.2,.53-1.92,.53-1.37,0-2.28-.64-2.28-1.6s.9-1.59,2.28-1.59c.76,0,1.48,.25,1.79,.63,.16,.2,.46,.23,.66,.08l.53-.41c.11-.08,.18-.21,.19-.34,.01-.13-.04-.26-.13-.36-.6-.63-1.79-1.04-3.04-1.04-2.46,0-4.12,1.22-4.12,3.04s1.65,3.04,4.12,3.04c1.29,0,2.53-.37,3.4-1.02,.12-.09,.19-.23,.19-.38v-1.84c0-.26-.21-.47-.48-.47"/><path class="e" d="M150.39,125.85h-.77c-.26,0-.48,.21-.48,.47v3.21h0l-2.81-3.5c-.09-.11-.23-.18-.37-.18h-.99c-.26,0-.48,.21-.48,.47v4.94c0,.26,.21,.47,.48,.47h.77c.26,0,.48-.21,.48-.47v-2.82h0l2.5,3.12c.09,.11,.23,.18,.37,.18h1.31c.26,0,.48-.21,.48-.47v-4.94c0-.26-.21-.47-.48-.47"/><path class="e" d="M159.15,131.02h0l-2.9-4.94c-.08-.14-.24-.24-.41-.24h-1.02c-.17,0-.32,.09-.41,.23l-2.94,4.94c-.13,.22-.07,.53,.2,.66,.07,.03,.14,.05,.21,.05h.79c.17,0,.33-.09,.41-.24l.51-.88h0c.08,.14,.23,.24,.4,.24h3.12l.37,.64c.08,.14,.24,.24,.41,.24h.82c.1,0,.2-.02,.28-.08,.22-.15,.27-.42,.15-.63m-4.9-1.53l1.04-1.79h0l1.04,1.78h-2.08"/><path class="e" d="M136.39,121.81c-.06-.11-.19-.18-.31-.16-.13,.01-.24,.1-.28,.22-.37,1.06-.61,1.02-.62,1.02h0c-.62-.02-1.48-2.32-2.24-4.34-.45-1.19-.66-1.85-1.22-3.09-.05-.12-.17-.19-.3-.19h0c-.13,0-.24,.07-.29,.19l-.36,.8c-.04,.08-.04,.18,0,.27,.46,1.03,.58,1.44,.98,2.48,1.15,2.99,2.05,5.35,3.43,5.38h.02c.67,0,1.02-.25,1.61-1.6,.04-.09,.03-.19-.02-.28l-.39-.69Z"/><path class="e" d="M137.38,117.18h0l.32,.62c.06,.11,.17,.17,.29,.17,.01,0,.03,0,.04,0,.13-.02,.24-.11,.28-.25l.46-1.91c.12-.5,.25-1.03,.4-1.53l.03-.1h0c.03-.1,.07-.22,.12-.33,.05,.11,.08,.22,.12,.33h0l.03,.1c.15,.5,.28,1.02,.4,1.53l.46,1.91c.03,.13,.14,.23,.28,.25,.01,0,.03,0,.04,0,.12,0,.23-.07,.29-.17l.32-.62h0c.03-.07,.08-.15,.09-.27,.01-.12-.01-.22-.03-.28-.26-1-.29-1.09-.59-2.11-.14-.47-.31-1.02-.54-1.55-.12-.27-.26-.54-.51-.75-.11-.09-.23-.13-.36-.13-.13,0-.25,.04-.36,.13-.25,.21-.39,.48-.51,.75-.23,.53-.4,1.07-.54,1.55-.3,1.02-.34,1.11-.59,2.11-.02,.07-.04,.17-.03,.28,.01,.11,.06,.2,.09,.27"/><path class="e" d="M147.49,115.45c-.05-.12-.17-.19-.3-.19h0c-.13,0-.24,.07-.3,.19-.56,1.24-.78,1.9-1.22,3.09-.76,2.02-1.62,4.32-2.24,4.34h0s-.25,.04-.62-1.02c-.04-.12-.15-.2-.28-.22-.13-.01-.25,.05-.31,.17l-.39,.69c-.05,.08-.06,.19-.02,.28,.59,1.36,.93,1.6,1.61,1.6h.02c1.38-.03,2.28-2.39,3.43-5.38,.4-1.05,.53-1.45,.98-2.48,.04-.08,.04-.18,0-.27l-.36-.8Z"/><path class="e" d="M153.52,113.9c-.02-.08-.03-.15-.05-.22v-.04l-.02-.06v-.04l-.03-.09v-.02s0-.02-.01-.03h0v-.02c-.54-1.98-1.21-3.77-2.51-3.79h0c-.76,0-1.27,.34-2.38,2.5-.05,.09-.05,.2,0,.29l.35,.74c.05,.11,.17,.18,.29,.18h0c.12,0,.24-.07,.29-.18,1.06-2.19,1.38-2.05,1.45-2.04,.39,.02,1.72,.75,2.32,9.36h0c-.09,1-.33,1.6-.64,1.61h0c-.5,0-1.59-2.86-2.24-4.57-1.31-3.46-2.67-7.03-4.37-7.03h-.03c-1.61,.04-2.63,2.59-3.7,5.29-.84,2.1-1.78,4.46-2.8,4.62h0s-.08,0-.12,0-.08,0-.12-.01h0c-1.01-.16-1.96-2.53-2.8-4.62-1.08-2.7-2.1-5.24-3.7-5.29h-.03c-1.69,0-3.05,3.57-4.37,7.03-.65,1.71-1.74,4.57-2.24,4.57h0c-.31-.01-.55-.61-.64-1.61h0c.6-8.62,1.92-9.35,2.32-9.36,.07,0,.39-.14,1.45,2.04,.05,.11,.17,.18,.29,.18h0c.12,0,.24-.07,.29-.18l.36-.74c.04-.09,.04-.2,0-.29-1.11-2.15-1.62-2.5-2.38-2.5h0c-1.3,.01-1.97,1.8-2.5,3.79v.02h0v.05s-.03,.06-.04,.09v.04l-.02,.06v.04c-.03,.07-.04,.15-.06,.22-.58,2.59-1.49,8.19-.15,9.89,.28,.36,.67,.54,1.09,.54,1.48-.01,2.49-2.82,3.67-6.08,.89-2.46,2-5.51,2.96-5.51h0c.85,.01,1.48,2.12,2.1,4.16,.93,3.1,1.99,6.6,4.53,6.61h0c2.54,0,3.6-3.51,4.53-6.61,.62-2.04,1.25-4.15,2.1-4.16h0c.96,0,2.07,3.06,2.96,5.51,1.18,3.26,2.2,6.07,3.67,6.08,.42,0,.81-.18,1.09-.54,1.34-1.7,.43-7.3-.15-9.89"/></g><path class="e" d="M249.29,113.62l-3.06,14.33h-3.71l3.07-14.33h3.71Zm15.6,9.25l1.95-5.38,1.12,5.38h-3.07Zm4.14,5.08h3.43l-2.99-14.33h-3.16c-.71,0-1.31,.41-1.58,1.05l-5.56,13.28h3.89l.77-2.14h4.76l.45,2.14Zm-9.67-4.68c.01-3.78-5.23-3.99-5.19-5.68,.01-.51,.5-1.06,1.57-1.2,.53-.07,1.99-.12,3.65,.64l.65-3.04c-.89-.32-2.04-.63-3.47-.63-3.66,0-6.24,1.95-6.26,4.74-.02,2.06,1.84,3.21,3.24,3.9,1.45,.7,1.93,1.15,1.92,1.78-.01,.96-1.15,1.39-2.22,1.4-1.86,.03-2.94-.5-3.81-.91l-.67,3.14c.87,.4,2.46,.74,4.12,.76,3.9,0,6.44-1.92,6.46-4.9m-15.36-9.65l-6.01,14.33h-3.92l-2.96-11.44c-.18-.7-.34-.96-.88-1.26-.89-.49-2.37-.94-3.66-1.22l.09-.42h6.31c.8,0,1.52,.53,1.71,1.46l1.56,8.3,3.86-9.75h3.9Z"/><g><rect class="u" x="173.89" y="107.48" width="42.09" height="26.61"/><g id="b"><g><rect class="q" x="190.21" y="112.28" width="9.42" height="16.92"/><path class="g" d="M190.83,120.74c0-3.43,1.61-6.49,4.11-8.46-1.83-1.44-4.14-2.3-6.65-2.3-5.94,0-10.76,4.82-10.76,10.76s4.82,10.76,10.76,10.76c2.51,0,4.82-.86,6.65-2.3-2.5-1.97-4.11-5.03-4.11-8.46"/><path class="j" d="M211.33,127.41v-.35h.14v-.07h-.36v.07h.14v.35h.08Zm.69,0v-.42h-.11l-.13,.29-.13-.29h-.11v.42h.08v-.31l.12,.27h.08l.12-.27v.32h.08Z"/><path class="j" d="M201.59,109.98c-2.51,0-4.82,.86-6.65,2.3,2.5,1.97,4.11,5.03,4.11,8.46s-1.61,6.49-4.11,8.46c1.83,1.44,4.14,2.3,6.65,2.3,5.94,0,10.76-4.82,10.76-10.76s-4.82-10.76-10.76-10.76"/></g></g></g></g><text class="f" transform="translate(9.86 117.16)"><tspan class="p" x="0" y="0">A</tspan><tspan class="h" x="8.11" y="0">c</tspan><tspan class="m" x="13.45" y="0">ep</tspan><tspan class="r" x="27.78" y="0">t</tspan><tspan class="i" x="32.43" y="0">a</tspan><tspan x="39.27" y="0">mos </tspan><tspan class="k" x="67.02" y="0">t</tspan><tspan x="71.55" y="0">odas</tspan><tspan class="l" x="0" y="14.05">l</tspan><tspan x="4.01" y="14.05">as </tspan><tspan class="t" x="19.98" y="14.05">t</tspan><tspan class="o" x="24.63" y="14.05">a</tspan><tspan x="31.48" y="14.05">rje</tspan><tspan class="t" x="46.72" y="14.05">t</tspan><tspan x="51.37" y="14.05">as:</tspan></text></svg>